<?xml version="1.0" encoding="utf-8"?>
<!-- Generator: Adobe Illustrator 28.2.0, SVG Export Plug-In . SVG Version: 6.00 Build 0)  -->
<svg version="1.1" id="Layer_1" xmlns="http://www.w3.org/2000/svg" xmlns:xlink="http://www.w3.org/1999/xlink" x="0px" y="0px"
	 viewBox="0 0 1024 1024" style="enable-background:new 0 0 1024 1024;" xml:space="preserve">
<style type="text/css">
	.st0{fill:#FD3DB5;}
	.st1{fill:#FFFFFF;}
</style>
<g>
	<path class="st0" d="M909.82,736.57L700.11,917.3c2.02-10.27,3.43-20.72,4.27-31.25l3.43-45.54c2.28-31.05,16.54-59.39,40.2-79.73
		c21.44-18.44,48.22-28.37,76.24-28.37c2.89,0,5.77,0.12,8.69,0.32l46.35,3.46C889.47,736.89,899.66,737.03,909.82,736.57z"/>
	<path class="st0" d="M1009,212.31v373.99c0,39.68-13.27,77.8-37.14,108.56l-15.93,4.07c-24.33,6.2-49.38,8.46-74.45,6.69
		l-46.32-3.43c-39.25-2.83-77.31,9.7-107.15,35.38c-29.87,25.71-47.88,61.47-50.73,100.68l-3.43,45.45
		c-1.99,25.39-7.94,50.18-17.66,73.62l-8.28,19.97c-29.49,20.63-64.79,31.71-101.23,31.71H212.3c-108.97,0-197.3-88.36-197.3-197.33
		V212.31c0-109,88.33-197.33,197.3-197.33h599.37C920.67,14.99,1009,103.35,1009,212.31z"/>
	<g>
		<g>
			<path class="st1" d="M815.02,308.26H479.98c-8.46,0-15.31-6.86-15.31-15.31s6.86-15.31,15.31-15.31h335.04
				c8.46,0,15.31,6.86,15.31,15.31S823.47,308.26,815.02,308.26z"/>
		</g>
		<g>
			<path class="st1" d="M815.02,641.79H479.98c-8.46,0-15.31-6.86-15.31-15.31c0-8.46,6.86-15.31,15.31-15.31h335.04
				c8.46,0,15.31,6.86,15.31,15.31C830.33,634.93,823.47,641.79,815.02,641.79z"/>
		</g>
		<g>
			<g>
				<path class="st1" d="M250.32,435.25c-78.46,0-142.3-63.84-142.3-142.3s63.84-142.3,142.3-142.3s142.3,63.84,142.3,142.3
					S328.79,435.25,250.32,435.25z M250.32,181.27c-61.58,0-111.68,50.1-111.68,111.68s50.1,111.68,111.68,111.68
					S362,354.53,362,292.95S311.9,181.27,250.32,181.27z"/>
			</g>
			<g>
				<path class="st1" d="M311.79,308.26h-61.47c-8.46,0-15.31-6.86-15.31-15.31v-61.47c0-8.46,6.86-15.31,15.31-15.31
					s15.31,6.86,15.31,15.31v46.16h46.16c8.46,0,15.31,6.86,15.31,15.31S320.24,308.26,311.79,308.26z"/>
			</g>
		</g>
		<g>
			<path class="st1" d="M250.32,768.78c-78.46,0-142.3-63.84-142.3-142.3s63.84-142.3,142.3-142.3s142.3,63.84,142.3,142.3
				S328.79,768.78,250.32,768.78z M250.32,514.8c-61.58,0-111.68,50.1-111.68,111.68s50.1,111.68,111.68,111.68
				S362,688.06,362,626.48S311.9,514.8,250.32,514.8z"/>
		</g>
		<g>
			<path class="st1" d="M305.1,676.4c-2.8,0-5.62-0.76-8.16-2.37l-54.8-34.61c-4.44-2.81-7.13-7.69-7.13-12.94v-61.47
				c0-8.46,6.86-15.31,15.31-15.31s15.31,6.86,15.31,15.31v53.03l47.66,30.1c7.15,4.51,9.28,13.97,4.77,21.12
				C315.15,673.88,310.18,676.4,305.1,676.4z"/>
		</g>
	</g>
</g>
</svg>
